<?xml version="1.0" standalone="no"?><!DOCTYPE svg PUBLIC "-//W3C//DTD SVG 1.1//EN" "http://www.w3.org/Graphics/SVG/1.1/DTD/svg11.dtd"><svg t="1684725073704" class="icon" viewBox="0 0 1024 1024" version="1.1" xmlns="http://www.w3.org/2000/svg" p-id="4856" xmlns:xlink="http://www.w3.org/1999/xlink" width="200" height="200"><path d="M512 160c15.71 0 28.775 11.32 31.484 26.248L544 192v288h288c17.673 0 32 14.327 32 32 0 15.71-11.32 28.775-26.248 31.484L832 544H544v288c0 17.673-14.327 32-32 32-15.71 0-28.775-11.32-31.484-26.248L480 832V544H192c-17.673 0-32-14.327-32-32 0-15.71 11.32-28.775 26.248-31.484L192 480h288V192c0-17.673 14.327-32 32-32z" fill="#666666" p-id="4857"></path></svg>